<svg xmlns="http://www.w3.org/2000/svg" viewBox="70 0 4700 1880" shape-rendering="geometricPrecision">
  <g fill="#17171c">
    <g transform="translate(0 1660) scale(1 -1)">
      <path d="M1593 -198H1294V1646H1593ZM1076 861Q1076 661 1013.5 511.5Q951 362 839 280.5Q727 199 587 199Q446 199 334 280.5Q222 362 158.5 511.5Q95 661 95 861Q95 1060 158.5 1209.5Q222 1359 334 1440Q446 1521 587 1521Q727 1521 839 1440Q951 1359 1013.5 1209.5Q1076 1060 1076 861ZM380 861Q380 732 405.5 643.5Q431 555 478 511Q525 467 587 467Q650 467 696 511Q742 555 767.5 643.5Q793 732 793 861Q793 989 767.5 1078Q742 1167 696 1211.5Q650 1256 587 1254Q525 1256 478 1211.5Q431 1167 405.5 1078Q380 989 380 861Z"/>
    </g>
    <g transform="rotate(-0.7 2390 920)">
      <g transform="translate(1540 1660) scale(1 -1)">
        <path d="M199 562 47 789Q198 837 296.5 925.5Q395 1014 439.5 1123Q484 1232 484 1348V1457H730V1348Q730 1169 672.5 1011.5Q615 854 496 736.5Q377 619 199 562ZM1209 821 1059 595Q886 648 770.5 761Q655 874 599.5 1025Q544 1176 544 1348V1457H783V1348Q783 1238 826 1136Q869 1034 965 950.5Q1061 867 1209 821ZM1592 538H1297V1646H1592ZM1592 -192H1297V232H320V465H1592ZM1133 1311H125V1545H1133Z"/>
      </g>
    </g>
  </g>
  <g fill="#6d4be8" transform="translate(0 -10) rotate(1.1 3940 920)">
    <g transform="translate(3070 1660) scale(1 -1)">
      <path d="M1125 1273H125V1508H1125ZM1189 870 1208 661Q962 611 692 596Q422 581 108 581L77 818Q377 817 660 828Q943 839 1189 870ZM541 719H259V1324H541ZM986 719H704V1324H986ZM1592 399H1297V1646H1592ZM347 -184 234 42Q432 69 559.5 136Q687 203 744.5 292Q802 381 802 478V505H1052V478Q1052 314 973.5 175.5Q895 37 736.5 -57.5Q578 -152 347 -184ZM1678 42 1570 -184Q1338 -152 1178 -57.5Q1018 37 938.5 175.5Q859 314 859 478V505H1111V478Q1111 381 1168 292Q1225 203 1352.5 136Q1480 69 1678 42Z"/>
    </g>
  </g>
</svg>
