<svg xmlns="http://www.w3.org/2000/svg" viewBox="60 0 1640 1880" shape-rendering="geometricPrecision">
  <g fill="#6d4be8" transform="translate(0 -10) rotate(1.1 880 920)">
    <g transform="translate(0 1660) scale(1 -1)">
      <path d="M1125 1273H125V1508H1125ZM1189 870 1208 661Q962 611 692 596Q422 581 108 581L77 818Q377 817 660 828Q943 839 1189 870ZM541 719H259V1324H541ZM986 719H704V1324H986ZM1592 399H1297V1646H1592ZM347 -184 234 42Q432 69 559.5 136Q687 203 744.5 292Q802 381 802 478V505H1052V478Q1052 314 973.5 175.5Q895 37 736.5 -57.5Q578 -152 347 -184ZM1678 42 1570 -184Q1338 -152 1178 -57.5Q1018 37 938.5 175.5Q859 314 859 478V505H1111V478Q1111 381 1168 292Q1225 203 1352.5 136Q1480 69 1678 42Z"/>
    </g>
  </g>
</svg>
